<svg id="logo-repubblica-italiana" xmlns="http://www.w3.org/2000/svg" viewBox="0 0 62.284 70"><defs><style>.cls-1{fill:#005FAB;}.cls-2{fill:#6f7072;}.cls-3{fill:#fff;}</style></defs><title>logo-repubblica-header</title><path class="cls-1" d="M-102.648,3901.985c0.315,0,.757.16,0.646,0.425a1.106,1.106,0,0,1-.484.745,0.825,0.825,0,0,1-.733-0.636,0.542,0.542,0,0,1,.571-0.533h0Z" transform="translate(150.246 -3855.555)"/><path class="cls-1" d="M-130.047,3910.57a1.1,1.1,0,0,0,1.039,0l-0.26-.409-0.593-.519q-0.483-.259-0.779.481l0.594,0.446h0Z" transform="translate(150.246 -3855.555)"/><path class="cls-2" d="M-112.315,3922.589a0.386,0.386,0,0,0,.186.519,0.462,0.462,0,0,0,.556.112l-0.742-.63h0Z" transform="translate(150.246 -3855.555)"/><path class="cls-3" d="M-88.314,3888.312q0.3-2-.407-2.522a1.46,1.46,0,0,0-1.818.334q-0.631-.334-1.707.63a1.143,1.143,0,0,0,.037-0.853,2.53,2.53,0,0,0,1.243-.983,3.854,3.854,0,0,0,.279-1.688,8.428,8.428,0,0,1,1.3-2.522q0.815-1.818-1.15-1.261a2.584,2.584,0,0,0,1.075-1.67,2.9,2.9,0,0,0-.557-1.706,0.453,0.453,0,0,0-.779-0.223,2.153,2.153,0,0,0,.2-0.89,7.04,7.04,0,0,0-.686-2.189q-0.111-2.188-1.038-1.818a5.9,5.9,0,0,0-.742-2.188q-0.891-1.335-1.409-.7-1.448-2.151-2.708-1.781a2.794,2.794,0,0,0-.631-1.669,4.817,4.817,0,0,0-.816-1.967q-0.668-.259-0.927.742a6.079,6.079,0,0,0-.52-1.707,1.426,1.426,0,0,0-1.3-.927,1.109,1.109,0,0,0-.631.111,2,2,0,0,0-1-.371q-1.261-1.335-2.3-.223l-0.112-.778q-0.371-1.373-1.484-.593a11.3,11.3,0,0,0-3.116-2.486,1.086,1.086,0,0,0-1.41.186,2.493,2.493,0,0,0-1.187-.705q-0.631-.148-1.187-0.334-0.853-.037-0.742.927a3.462,3.462,0,0,0-1.836.464,0.894,0.894,0,0,0-.259,1.095,2.089,2.089,0,0,0,1.095,1.15,1.12,1.12,0,0,0-.186.816,1.393,1.393,0,0,0,1.186.927,3.476,3.476,0,0,0,1.67.037,0.8,0.8,0,0,0,.593,1.076,2.354,2.354,0,0,0,2.671.557l-0.111.7,1.447,0.593a1.677,1.677,0,0,0,.965,1.484l0.567,0.245a2.067,2.067,0,0,0-.661.523,0.568,0.568,0,0,0,.337.971,13.982,13.982,0,0,0,1.851.114,2.067,2.067,0,0,0,.244.689,5.015,5.015,0,0,0,.8,1.018,5.7,5.7,0,0,0,1.8,1.139,10.062,10.062,0,0,0-.377.971,2.178,2.178,0,0,0,.081,1.891,0.963,0.963,0,0,0-.564.4c-0.461.714,0.539,1.738,0.7,2.091a1.37,1.37,0,0,0-.5.235,1.134,1.134,0,0,0,.751,1.684,9.366,9.366,0,0,1,1.929,1.342c0.109,0.112.424,0.7,0.873,1.293a1.485,1.485,0,0,0,1.079.858,20.106,20.106,0,0,0,2.476,5.01,9.531,9.531,0,0,1,1.315,2.015,6.174,6.174,0,0,0-.107,1.152,17.978,17.978,0,0,1-.643,3.284c-1.052-.508-1.223.185-1.38,0.865a0.485,0.485,0,0,0-.558.137,0.685,0.685,0,0,0-.939-0.555c-0.008.005-.338,0.237-0.542,0.392a0.994,0.994,0,0,1-.152-0.633,3.385,3.385,0,0,1,.078-1.159c0.02-.044.269-0.342,0.423-0.618,0.312-.56.084-2.325-0.3-3.546a0.945,0.945,0,0,0-.568-0.624,0.68,0.68,0,0,0-.745.423,0.871,0.871,0,0,0-.708-0.453c-0.811-.193-1.679,1.366-1.582,2.813-0.591-.468-1.369-0.319-1.275.492,0.132,1.135,1.839,3.151,1.891,4.061a0.957,0.957,0,0,0-1.67.639,3.547,3.547,0,0,0,.389,1.15c-0.236,1.18,1.125,2.045,2.236,3.158a0.752,0.752,0,0,0,.331.739c-0.2.311-1.446,2.272-1.463,2.318-0.06.025-.919-0.457-1.2-0.207a4.262,4.262,0,0,0-.685.845l0.149,1.374a2.3,2.3,0,0,1-.91,1.909,5.811,5.811,0,0,0-1.391,1.948,3.032,3.032,0,0,1-1.446,1.447,2.308,2.308,0,0,0-.594-0.705,0.248,0.248,0,0,0-.3-0.11,50.8,50.8,0,0,0-5.082,2.453,5.307,5.307,0,0,0-1.89,2.194h-1.447a11.056,11.056,0,0,0-1.262-1.155,1.609,1.609,0,0,0-1.706.147,2.9,2.9,0,0,0-2.3.424,1.433,1.433,0,0,1-1.038.082l-1.818-1.98q-5.638-2.374-6.158-2.12a1.951,1.951,0,0,0-.816.96,7.071,7.071,0,0,1-1.67-1.412l-1.15-1.3a3.217,3.217,0,0,1-1.039-2.672l0.186-1.15a0.534,0.534,0,0,0-.074-0.408,2.089,2.089,0,0,0-1-.525c-0.053-.022-0.214-0.078-0.4.593a19.007,19.007,0,0,1-1.2-1.688,7.437,7.437,0,0,0,1.26-2.639,15.169,15.169,0,0,0,.542-3.51,0.642,0.642,0,0,1,.14-0.206c0.575-.441,1.3-4.57,1.142-5.563a0.722,0.722,0,0,0-.279-0.612,0.432,0.432,0,0,0-.315.093l0.223-.445a0.551,0.551,0,0,0,0-.63,1.986,1.986,0,0,0-1.324.226,8.143,8.143,0,0,0-.533-1.932c-0.052-.114-0.213.008-0.218,0.011-1.038.629-1.5,2.006-1.869,3.714l-0.3.273a13.9,13.9,0,0,0-2.852,5.795,6.538,6.538,0,0,1-.547-1.5,2.672,2.672,0,0,1-.186-1.316,0.716,0.716,0,0,0-.186-0.965,10.375,10.375,0,0,1-.965-3.338,8.5,8.5,0,0,1,.63-2.337,27.53,27.53,0,0,1,1.923-3.838,2.551,2.551,0,0,1,.549-0.511c1.284-.319,6.99-7.712,6.392-11.155a28.513,28.513,0,0,0,2.655-4.982l0.315-.1,0.371-.148c1.237-.495,2.288-1.023,3.252-1.468l1.5-.794a12.433,12.433,0,0,0,2.968-1.818,4.107,4.107,0,0,0,1.595-2.708,2.214,2.214,0,0,0-1.521-.371,2.482,2.482,0,0,0,.7-1.558q-0.483-.667-2.894-0.222a13.069,13.069,0,0,0-4.414,1.966,15.9,15.9,0,0,0-3.469,2.986,16.784,16.784,0,0,0-2.466,3.654l0.742-1.706q0.557-1.224,1.187-2.856a1.769,1.769,0,0,0,.018-1.113,0.554,0.554,0,0,0-.723-0.186,7.171,7.171,0,0,0-2.152,1.558,17.615,17.615,0,0,0-3.023,4.3,29.413,29.413,0,0,0-1.8,4.043,6.772,6.772,0,0,0-.074-2.856,0.55,0.55,0,0,0-.816-0.26,5.118,5.118,0,0,0-1.187,1.224q-0.593.816-1.15,1.576a19.441,19.441,0,0,0-1.317,2.171,17.711,17.711,0,0,0-1.336,3.338,27.437,27.437,0,0,0-.872,5.119,14.964,14.964,0,0,0,.3,4.378,16.344,16.344,0,0,0,1.187,3.45,2.616,2.616,0,0,0,1.113,1.3q0.333,0.816.89,2.709a3.746,3.746,0,0,1,.259,1.354,0.656,0.656,0,0,0,.241.649,1.393,1.393,0,0,1,.464.741,15.565,15.565,0,0,0,1.3,3.3,9.114,9.114,0,0,0-.148,1.631q-1.78-5.154-2.894-7.79-2.151-4.784-3.376-4.377a1.257,1.257,0,0,0-.743,1.076q-0.037.333,0,1.706a24.5,24.5,0,0,0,.259,2.893,19.543,19.543,0,0,0,3.821,8.236l2.708,3.19a6.6,6.6,0,0,0,1.558,1.2,1.8,1.8,0,0,0,1.373.2,25.47,25.47,0,0,0,2.337,3.117,2.191,2.191,0,0,0,1.855,1.3,1.31,1.31,0,0,0,1.224.891l0.556-.074a19.474,19.474,0,0,0,2.077,1.781l-0.7,2a29.983,29.983,0,0,1-3.413.3q-1.447-1.04-4.08-2.82l-0.111-2.225a3.192,3.192,0,0,1,.408-1.929,1.158,1.158,0,0,0-.7-1.15,2.6,2.6,0,0,0-1.509-.482c-0.148.049-.025,0.186-0.025,0.408v0.139c0-.112.048-0.15,0.19-0.1,1.038,0.273,1.507.619,1.432,1.04a3.332,3.332,0,0,0-.452,1.854l0.033,1.929a28.886,28.886,0,0,0-4.231-2.3c0.173-.024.37-0.045,0.592-0.056a0.481,0.481,0,0,0,.445-0.241c0.074-.15-0.062-0.235-0.409-0.26a3.663,3.663,0,0,0-1.484.186,0.406,0.406,0,0,0,.111.629,46.925,46.925,0,0,1,4.711,2.672q3.227,2.041,5.008,3.338a44.259,44.259,0,0,0,4.9-.482l3.19-.593q1.965-.373,4.08-0.631a18.184,18.184,0,0,1,1.967-.148,19.241,19.241,0,0,0,2.188-.186,10.686,10.686,0,0,1,1.187,3.19q0.111,0.7-.186.779a56.309,56.309,0,0,1-6.343,2.057q-1.929.427-3.487,0.761-3.894.7-7.679,1.15a41.179,41.179,0,0,1-5.564-2.856,28.919,28.919,0,0,1-4.563-3.189q-1.483-1.6-1.187-1.93a11.476,11.476,0,0,0,1.3-2.818,1.657,1.657,0,0,0,.074-0.815q-0.408-1.263.594-1.3a28.113,28.113,0,0,1,3.338-.074,0.417,0.417,0,0,0,.482-0.223l0.557-1.112-0.334-.148-0.454.741,0-.75v0.972l-3.758.074a1.251,1.251,0,0,0-.915.371,1.7,1.7,0,0,0-.077,1.484,2.063,2.063,0,0,1-.066.705,9.336,9.336,0,0,1-1.387,2.892,0.836,0.836,0,0,0,.123.779,8.665,8.665,0,0,0,1.388,1.633,12.205,12.205,0,0,0,1.463,1.187q0.983,0.7,3.468,2.151a48.747,48.747,0,0,0,5.6,2.894q0.557,0.037,7.419-1l0.037,0.406q-1.966,1.485-2.522,1.224-0.779.074-.482,1.152a1.251,1.251,0,0,0,.816.667l0.482,0.557,1.372,0.816a2.533,2.533,0,0,0,1.484,0,1.517,1.517,0,0,0,.89-1.15l0.146-.147,1.486-1.486,1.075-.815a2.169,2.169,0,0,0,1.633-.891,0.949,0.949,0,0,1,.334-0.741l1.3-.891q0.074-.185,1.6.631a1.911,1.911,0,0,0,1.3-.074l0.965-.557q1.3,0.3,4.563,3.229a1.047,1.047,0,0,0,.408.779,2.551,2.551,0,0,0,1.41.555l0.519,0.965,0.52,0.186a3.1,3.1,0,0,0,2.151-.817l0.816-.26a1.071,1.071,0,0,0,.557-0.964l-0.335-.335-0.705-.185a14.441,14.441,0,0,1-2.708-1.706l-0.594-.446a98.777,98.777,0,0,0,10.053,1.113,2.8,2.8,0,0,0,1.984-.761q1.242-.907,7.512-5.36a7.949,7.949,0,0,0,1.484-2.3,4.474,4.474,0,0,1-.983-1.484,7.085,7.085,0,0,1-.538-1.633,2.531,2.531,0,0,1-.037-1.132,0.993,0.993,0,0,0-.334-0.946,1.2,1.2,0,0,0-.853-0.333,14,14,0,0,0-2.671.036,0.96,0.96,0,0,1-.816-0.335l0.037-.889q0.111-.593-0.334-0.519a4.268,4.268,0,0,0-1.967.815,0.745,0.745,0,0,0,.038,1.113,1.123,1.123,0,0,1,.407.853,32.8,32.8,0,0,1-.407,3.3,27.892,27.892,0,0,1-3.673,2.634,9.2,9.2,0,0,1-3.486-.223,3.158,3.158,0,0,1-.853-1.781,23.278,23.278,0,0,0,1.966-1.336,6.888,6.888,0,0,0,1.187-.279,0.834,0.834,0,0,0,.482-0.909,1.247,1.247,0,0,0,.7-0.816l2.152-2.6a4.205,4.205,0,0,1,2.262-1.04,8.952,8.952,0,0,0,3.858-1.669,0.97,0.97,0,0,0,0-1.151,11.774,11.774,0,0,0,2.3-2.3,2.137,2.137,0,0,0,.3-1.965,7.076,7.076,0,0,0,1.67-2.82,6.1,6.1,0,0,0-.037-2,4.81,4.81,0,0,0,.984-0.761,1.27,1.27,0,0,0,.278-0.871,1.2,1.2,0,0,0-.408-0.927A2.262,2.262,0,0,0-88.314,3888.312Zm-34.561-29.6a2.267,2.267,0,0,1-.8,1.558,14.458,14.458,0,0,1-3.2,2.189c-1.3.668-3.037,1.459-4.917,2.374v-0.222a48.951,48.951,0,0,1,6.864-4.6c0.569-.346.347-0.445-0.32-0.3-0.742.371-1.546,0.829-2.435,1.373-1.484.965-2.925,1.917-4.334,2.856l0.04-.445a26.692,26.692,0,0,1,6.939-4.785A3.968,3.968,0,0,1-122.875,3858.709Zm-8.414.89a14.758,14.758,0,0,1,4.841-2.6,8.135,8.135,0,0,1,2.374-.334,0.339,0.339,0,0,1,.26.556l-0.816,1.076a9.067,9.067,0,0,0-2.949,1.224,29.362,29.362,0,0,0-4.025,2.856l-0.519.334a1.555,1.555,0,0,0-1.484.259,45.959,45.959,0,0,1,5.936-4.34,7.353,7.353,0,0,0,1.892-1.15,12.131,12.131,0,0,0-2.3,1.02,48.3,48.3,0,0,0-4.9,3.32l-2.189,1.966A23.255,23.255,0,0,1-131.29,3859.6Zm-2.281,4.118a1.258,1.258,0,0,1,.816-0.26,2.162,2.162,0,0,1,.074,1.02,13.164,13.164,0,0,1-.965,2.726l-1.372,2.671a5.1,5.1,0,0,0-2.745,1.336q0.668-1.149,1.614-2.634t2.949-4.451q0.333-.557.019-0.278a21.745,21.745,0,0,0-1.688,2.133q-1.373,1.854-3.672,5.75c-0.42.643-1.429,2.193-3.092,4.744l0.2-.575,2.229-3.946,2.144-4.007A13.746,13.746,0,0,1-133.571,3863.717Zm-9.089,9.088a72.792,72.792,0,0,0,3.562-6.825,18.459,18.459,0,0,1,1.855-2.93q0.371-.854-0.408.037a40.842,40.842,0,0,0-4.229,7.159l0.7-1.781a28.514,28.514,0,0,1,1.187-2.69,17.914,17.914,0,0,1,1.966-3.32q0.965-1.224,1.336-1.595a3.993,3.993,0,0,1,1.558-1.076,0.447,0.447,0,0,1,.111.482l-1.818,4.675a47.694,47.694,0,0,1-4.674,7.2q-1.224,1.336-1.521,1.707a5.2,5.2,0,0,0-.482.7l0.148-.63Zm1,4.23a18.878,18.878,0,0,0-1.187,2.6l-0.3-.037,0.779-2.411Zm-2.745,6.306,0.259-1.076,0.223-1.076,0.593-.112-0.742,2-0.519,1.743Zm-0.149-4.043a19.732,19.732,0,0,1,.7-3.042l0.3,0.371Zm-1.409,7.382-0.148-.3q-0.222-.334.779-4.341Q-145.7,3885.011-145.961,3886.679Zm-0.556-2.114a25.212,25.212,0,0,1,.352-6.4,25.075,25.075,0,0,1,1.65-6.956q0.483-1.075-.037-0.334-2.263,3.858-2.633,11.389a12.654,12.654,0,0,0,.3,3.8,2.039,2.039,0,0,0,.853,1.354,0.513,0.513,0,0,0,.558-0.037,3.223,3.223,0,0,0-.115.816,2.759,2.759,0,0,1-1.444-1.5,17.108,17.108,0,0,1-.835-2.764,16.267,16.267,0,0,1-.315-4.08,33.44,33.44,0,0,1,.816-5.491,17.274,17.274,0,0,1,3.784-7.048q0.631-.7.779-0.334a13.13,13.13,0,0,1-.019,2.875,16.429,16.429,0,0,1-.724,3.1q-1.447,4.822-1.743,6.492Q-145.85,3881.413-146.517,3884.565Zm1.1,3.562v-0.594c0.94-1.014.829-1.978,1.175-2.894l1.3-3.338,1.513-3.524a44.585,44.585,0,0,1,3.427-5.416,4.07,4.07,0,0,1,2.307-1.632,2.142,2.142,0,0,1,0,1.521,10.661,10.661,0,0,1-.889,2.411c-0.028.01-.062,0.025-0.024,0.046a23.8,23.8,0,0,1-4.649,6.409l2.559-4.155,1.222-2.225c0.47-.841.551-1.138,0.254-0.89-2.5,3.759-4.006,6.121-4.5,7.085s-1,1.867-1.47,2.708a16.157,16.157,0,0,0-1.091,1.966A5.772,5.772,0,0,1-145.418,3888.127Zm9.955,1.521a24.034,24.034,0,0,1-.742,4.155,17.768,17.768,0,0,0-.186-2.746l0.334-.927q0.037-.483-0.186-0.037l-0.222.407-0.037-.741,0.556-.705Q-135.389,3888.5-135.463,3889.648Zm-0.556-2q0.482-.111.186,0.445l-0.7,1.039a8.7,8.7,0,0,0-.186-1.076A4.328,4.328,0,0,1-136.02,3887.644Zm-2.931,1.743q0.779-3.079,1.484-3.264a17.315,17.315,0,0,1,.668,3.988,26.557,26.557,0,0,1,0,5.25,10.374,10.374,0,0,1-1,4.006l-0.482,1.037q0-2.3.055-3.746t0.111-3.84q0.056-2.393.315-5.435,0.148-.742-0.074-0.334a49.01,49.01,0,0,0-.705,7.9l-0.037,2.114-0.074,2.894-0.482-.557a24.5,24.5,0,0,1-.445-5.452A27.2,27.2,0,0,1-138.95,3889.388Zm-3.283,6.214a15.16,15.16,0,0,1,2.8-5.657,13.518,13.518,0,0,0-.408,2.262,28.6,28.6,0,0,0-2.522,5.6,16.21,16.21,0,0,0-.371,2.039A15.61,15.61,0,0,1-142.233,3895.6Zm2.43,3.1-0.816-1.038,0.593-1.484A11.1,11.1,0,0,0-139.8,3898.7Zm7.493,15.321,0.519-1.484,1.706,1.113Zm4.08-.741-2.782-1.67-2.56-1.707-0.482-.631a0.5,0.5,0,0,0-.612-0.11q-0.39.149-.613-0.444a1.564,1.564,0,0,1-2.04-.446l-1.224-1.483-1.15-1.967-0.408-.3a1.1,1.1,0,0,1-.778.162,2.863,2.863,0,0,1-1.6-.977,21.012,21.012,0,0,1-2.226-3.822,62.522,62.522,0,0,1-3.079-6.491q-0.593-1.819-.779-2.3t-0.149-.019a12.665,12.665,0,0,0,.557,2.078,49.148,49.148,0,0,0,1.929,4.729q1.223,2.522,2.411,4.6a22.785,22.785,0,0,1-3.969-5.564,19.346,19.346,0,0,1-1.632-4.747,12.512,12.512,0,0,1-.223-2.393,9.78,9.78,0,0,1,.037-1.8q0.185-.557.52-0.482a2.9,2.9,0,0,1,1.02,1.057,22.4,22.4,0,0,1,2.17,4.749q1.373,3.688,1.688,4.841t0.63,2a17.4,17.4,0,0,0,.761,1.743,5,5,0,0,0,1.336,1.819c0.587,0.415,1.015.489,1.3,0.219l-1.357-2.427a0.61,0.61,0,0,0-.422-0.02c-0.027,0-.044-0.008-0.069-0.008l0,0.01a1,1,0,0,1-.146-0.03,0.819,0.819,0,0,1-.165-0.034,0.473,0.473,0,0,1-.107-0.083,0.476,0.476,0,0,1-.12-0.106,0.693,0.693,0,0,1-.054-0.151,0.732,0.732,0,0,1-.052-0.16,1.681,1.681,0,0,1,.011-0.44,20.6,20.6,0,0,1,.482-2.3,26.621,26.621,0,0,1,2.337-5.452,13.333,13.333,0,0,0-.186,2q-1.373,3.078-2,4.97-0.334,1.373.037,1.336l0.3-.148-0.222-.519,0.148-.408,0.445,0.779,0.26-.186,0.223,0.334-0.223.335,1.669,2.41,0.408-.333,0.3,0.333a1.192,1.192,0,0,0-.594.965,16.868,16.868,0,0,0,1.224,1.967q1.113,1.63,1.818.927a0.417,0.417,0,0,1,.556.074,3.241,3.241,0,0,1,.742,1.112l-0.037-.853-1.372-1.3-0.779-1.558a24.954,24.954,0,0,1-1.372-2.114q-0.408-.743-1.02-1.781t-1.5-2.338l0.111-.408,1.187,1.446a37.339,37.339,0,0,1,2.244,3.1q0.649,1.057.761,0.5l0.223-.7,0.334,0.186-0.222,1.447-0.074.444a0.548,0.548,0,0,0,.2.613,1.023,1.023,0,0,1,.427.685,6.252,6.252,0,0,0,1.169,1.54,12.537,12.537,0,0,0,2.225,1.966q1.169,0.8,1.929,1.3a1.214,1.214,0,0,1,.724.982l0.7,0.148-0.185-.889,0.445-.112a1.641,1.641,0,0,1,.557.817q0.965,0.741,1.669,1.186Zm-12.167-12.056,0.223-.222,1.038,1.743-0.112.223Zm1.743,3.487,0.408-.521,0.965,1.374,0.557,1,0.186,0.555a2.422,2.422,0,0,1-.891-0.779l-0.593-.778Zm12.909,8.123-1.6-1.112c-0.643-.768-1.113-1.323-1.409-1.671a3.2,3.2,0,0,0-.853-0.741,1.3,1.3,0,0,0-.965-0.222,1.269,1.269,0,0,0-.556.741l-0.074-.074a1.072,1.072,0,0,1,.464-0.779,0.941,0.941,0,0,1,.8.074l1.78,0.853,3.042,1.15a12.128,12.128,0,0,1,1.372,1.633Q-124.668,3912.8-125.744,3912.832Zm0.965,7.754a27.84,27.84,0,0,1-3.524,2.894l-0.445-.148q1.15-.707,3.265-2.3l0.631-.7-0.334-.036a19,19,0,0,1-1.614,1.28,15.531,15.531,0,0,1-2.1,1.243l-1.076.52,0.186,0.223,0.816,0.11a0.9,0.9,0,0,1,.593.891,0.825,0.825,0,0,1-1.187.148l-0.89-.482a2.839,2.839,0,0,0-.965-0.667l-0.371-.3,0.148-.337,1.113,0.48h0.334l-0.186-.7,1.336-.833a0.555,0.555,0,0,0,.445-0.639l0.111-.673a2.913,2.913,0,0,0,1.855-.28,5.633,5.633,0,0,1,1.891-.539Q-124.185,3920.1-124.779,3920.585Zm15.506-57.8,0.075-.853-0.705.148a1.943,1.943,0,0,1-2-.593q-0.669.111-.557-0.519,0.259-.557-0.148-0.593l-1.076.111a2.036,2.036,0,0,1-1.373-.593,0.785,0.785,0,0,1,.3-0.927,2.308,2.308,0,0,1-1.243-.89,0.536,0.536,0,0,1,.3-0.779,3.607,3.607,0,0,1,1.985-.111,0.853,0.853,0,0,1-.186-0.853q0.037-.445,1.929.482l0.741,0.445a0.749,0.749,0,0,1,1-.334,8.8,8.8,0,0,1,1.595.983,12.124,12.124,0,0,1,1.67,1.651q0.779-.519,1.113.222l0.111,0.89a1.551,1.551,0,0,0-2-.111l-0.519-.223a7.347,7.347,0,0,1-1.3-1.967q-0.222-.853-0.222-0.148a3.831,3.831,0,0,0,.89,1.892,5.5,5.5,0,0,1-2.393-1.336,15.916,15.916,0,0,1-1.168-1.372q-0.407-.667-0.334,0a5.82,5.82,0,0,0,1.223,1.521q-0.593-.26-1.113-0.52a6.472,6.472,0,0,0-2.151-.593q-0.409,0-.037.148a12.092,12.092,0,0,1,2.1.686,2.815,2.815,0,0,1,.872.575,4.985,4.985,0,0,1-2.152.408,0.841,0.841,0,0,0-.63.037,1.075,1.075,0,0,0,.445.148,6.4,6.4,0,0,0,2.708-.3,19.529,19.529,0,0,0,2.338,1,4.428,4.428,0,0,0-1.6.742q-0.3.371,0.3,0.037a3.518,3.518,0,0,1,1.781-.557l0.631,0.259a3.71,3.71,0,0,0,.482,2.041l-0.408.148Zm4.23,3.968c-1.385.025-1.664-.009-1.743-0.222-0.052-.164-0.081-0.315.407-0.593l0.25-.421a2.125,2.125,0,0,1-1.587-1.8l0.668-.26q0.445-.519.019-0.779a1.631,1.631,0,0,1-.464-1.372q0.409-.89,2,0,0.7-1.373,1.705-.816a1.119,1.119,0,0,0-1.261.927,4.692,4.692,0,0,0,0,1.447,3.806,3.806,0,0,0-.891-0.89q-1-.519-0.371.111a10.631,10.631,0,0,1,1.113,1.3,2.441,2.441,0,0,1-1.781.594q-0.334.148,0.111,0.186a1.924,1.924,0,0,0,1.039-.074,3.327,3.327,0,0,0,.254,1.447,3.947,3.947,0,0,0,.915.907A0.556,0.556,0,0,0-105.044,3866.758Zm0.778,0.706q-0.037-.445.779-0.5t0.26-.464a3.814,3.814,0,0,1-1.781-1.261q-0.482-.631,0-0.89l0.557-.148,0.26-.334-0.334-1.3a1.256,1.256,0,0,1,.556-1.409,2.545,2.545,0,0,1,1.966.594q0.037-.519.687-0.315t1.2,2.764l0.594,0.222a1.07,1.07,0,0,1,.482-0.7q0.3,0,.593,1.224a2.72,2.72,0,0,1,.705,2.188,2.665,2.665,0,0,0-.519,1.558l-0.3-.668a9.063,9.063,0,0,1-.223-2.337q-0.037-.519-0.111,0a9.167,9.167,0,0,0-.037,1.818,17.771,17.771,0,0,0-2.152-2.337,5.546,5.546,0,0,1-.148-1.855q-0.111-.89-0.186-0.408a9.531,9.531,0,0,0,.074,2.077,19.483,19.483,0,0,1-2-2.486q-0.3-.519-0.259-0.222a11.6,11.6,0,0,0,1.483,2.226q0.779,0.89,1.262,1.409a10.4,10.4,0,0,0-1.669-.389,4.068,4.068,0,0,1-1.3-.39q-0.557-.111.036,0.259a4.1,4.1,0,0,0,1.354.408,7.091,7.091,0,0,1,1.911.631,5.479,5.479,0,0,1,1.3,1.521l0.445,1a7.666,7.666,0,0,0-2.3-.779,4.433,4.433,0,0,1-1.483-.408q-0.965-.408-0.223.075a4.261,4.261,0,0,0,1.576.5,8.035,8.035,0,0,1,2.615,1.057l0.074,0.222a0.978,0.978,0,0,0-.186.816l0.26,0.742q-0.334-.409-0.927.371a0.788,0.788,0,0,0-.111-0.89,6.1,6.1,0,0,0-2.523-1.669l-0.222.408A2.83,2.83,0,0,1-104.265,3867.464Zm9.033,18.492q-0.389-.575-1.113-1.762a18.978,18.978,0,0,1-1.058-1.929,2.154,2.154,0,0,1-.111-1.521q0.222-.779.372-1.187t-0.037-.148a6,6,0,0,0-.631,1.521l-0.742-2.115a7.935,7.935,0,0,1,1.336-3.227q0.371-.668-0.075-0.112a7.819,7.819,0,0,0-1.446,3l-1.15-2.56a7.192,7.192,0,0,1,.89-2.671q0.482-1.039-.223.074a10.033,10.033,0,0,0-.853,2.077q-0.519-2.114-1-3.6l-0.26-.074,0.148,0.408a16.567,16.567,0,0,0,.816,3.228,6.317,6.317,0,0,0-1.595-1.038q-0.483-.259,0,0.111a6.669,6.669,0,0,1,1.632,1.261q0.445,1.039.816,1.892a11.173,11.173,0,0,0-2.262-1.113q-0.594-.111,0,0.148a5.359,5.359,0,0,1,2.485,1.595l0.742,1.966a2.017,2.017,0,0,1-1.076-1.224,5.611,5.611,0,0,0-2.782-2,0.7,0.7,0,0,1-.408-0.779q0.074-.408.853-0.334a3.46,3.46,0,0,0-.52-1l-0.3-.445q-0.594-1.224.7-1.224a1.407,1.407,0,0,1-.334-1.15,2.513,2.513,0,0,1,.334-1.373,4.378,4.378,0,0,0,.335-0.89q0.7,0.409,1.28.686a1.1,1.1,0,0,1,.612,1.02l-0.185,1.15q0.111,0.334.593-.223a2.22,2.22,0,0,1,.779-0.779,2.123,2.123,0,0,1,.779.668,3.769,3.769,0,0,1-.259,2.6l-0.408,1.039q1.261-1.669,2.04-1.595a0.74,0.74,0,0,1,.167.76,3.927,3.927,0,0,0,0,1.206,1.131,1.131,0,0,1-.427,1.076,2.424,2.424,0,0,0-.705,1.447q1.187-.89.965,0.334l-0.444,1.6q-0.186,1.149.371,1.076a0.663,0.663,0,0,1,.687.148,1.321,1.321,0,0,1,.055.779,2.529,2.529,0,0,0-.3,1.02,0.717,0.717,0,0,0,.2.408,0.714,0.714,0,0,0,.724-0.074q0.556-.241.556,0.334t0.019,1.113a2.059,2.059,0,0,0,.353,1.057,1.172,1.172,0,0,0,.667.482l0.335-.408q-0.743.037-.686-0.965a8.917,8.917,0,0,0-.019-1.558,1.228,1.228,0,0,0-.594-0.779q-0.3-.074-1.372-3.71l0.779,0.037q0.853,3.116,1.372,3.357a0.616,0.616,0,0,1,.482.556,5.439,5.439,0,0,0,.186,1.354,1.233,1.233,0,0,0,.779-1.224,1.352,1.352,0,0,0-.557-1.484,1.8,1.8,0,0,1-.89-0.817,0.533,0.533,0,0,1,.482-0.779q0.407-.222-1.966-1.78-1.224-.854-0.742-1.521,0.185-.333.686,0.019t0.649,0.167q0.259-.519-0.407-0.724t-0.631-.464a8.921,8.921,0,0,1,.037-1.558,2.238,2.238,0,0,0-.074-0.965q-0.408-.593-1.558.074a2.019,2.019,0,0,0,.13-1.224,2.811,2.811,0,0,0-.575-1.15l-0.371-1.15q-0.149-.594.667-0.816a2.532,2.532,0,0,1,0-1.633,6.924,6.924,0,0,0,.372-0.853q0.111-.334.667-0.074a6.84,6.84,0,0,1,1.781,1.966q0.595-.668,1.151.482a3.763,3.763,0,0,1,.519,2.486q1.372-.742.965,1a8.353,8.353,0,0,1,.723,1.91,1.78,1.78,0,0,1-.223,1.28,1.819,1.819,0,0,0-.334.909q0.018,0.315.26-.019a1.85,1.85,0,0,1,.983-0.557,2.867,2.867,0,0,1,.408,1.372,1.327,1.327,0,0,1-.5.89,1.84,1.84,0,0,0-.576,1.15,0.3,0.3,0,0,0,.334.334l0.668-.186q0.519-.074.037,0.816a12.659,12.659,0,0,0-.76,1.632,3.368,3.368,0,0,0-.241,1.076,1.269,1.269,0,0,1-.3,1,12.581,12.581,0,0,0-.056-2.244,23.264,23.264,0,0,0-.464-2.615,5.3,5.3,0,0,0,.816-1.743q0.259-.741-0.111-0.186a2.83,2.83,0,0,1-.816,1.372q-0.407-1.372-.891-3.338a5.668,5.668,0,0,0,.705-2.337q0.037-1.187-.148-0.186a4.843,4.843,0,0,1-.816,2.189q-0.483-1.557-1.039-2.931a6.843,6.843,0,0,0,.148-1.818q-0.037-1.038-.186-0.074a4.25,4.25,0,0,1-.186,1.336l-0.816-2.077-0.519-1.187q-0.259-.593-0.186,0l0.482,1.558a4.84,4.84,0,0,0-1.039-.927q-0.482-.3-0.186.037a9,9,0,0,1,1.409,1.521q0.483,1.187.965,2.449a6.931,6.931,0,0,0-1.967-1.335q-0.7-.26,0,0.259a11.593,11.593,0,0,1,2.374,2.226q0.445,1.3.853,2.523a7.105,7.105,0,0,1-1.707-1.633q-0.445-.445-0.037.148a10.553,10.553,0,0,0,1.891,2.152l0.557,2.263a13.726,13.726,0,0,0-2.226-1.743q-0.593-.371-0.074.148a12.663,12.663,0,0,1,2.486,2.523,12.625,12.625,0,0,1,.334,3.821,1.241,1.241,0,0,1-1.039,1.038l-0.148,1.781-0.927.037Q-94.843,3886.532-95.233,3885.956Zm1.21,1.74a4.1,4.1,0,0,1,.8-0.008c-0.346,1.879-.745,3.938-1.066,5.224l-0.52-.3A33.812,33.812,0,0,0-94.023,3887.7Zm-6.589,10.576q-0.2-.166-1.242-1.02a1.251,1.251,0,0,1-.594-1.484,3.956,3.956,0,0,1-.464-0.779,0.829,0.829,0,0,1,.093-0.871q0.3-.427,1.372.39a1.947,1.947,0,0,0,0-1.188,10.626,10.626,0,0,0-.444-1.113,15.4,15.4,0,0,0-.928-1.52q-0.409-.853-0.186-0.965a0.765,0.765,0,0,1,.7.3q0.927-1,1.224-.575a3.834,3.834,0,0,1,.482,1.428,6.494,6.494,0,0,1,.037,2.078l-0.148.148,0.148,0.148a6.223,6.223,0,0,1-.186,1.669,1.113,1.113,0,0,0,.186.595,2.22,2.22,0,0,1-.037-0.669q0.037-.185.241-0.871a5.828,5.828,0,0,0,.2-0.779c0-.061.008-0.106-0.19-0.13a0.455,0.455,0,0,0,.32-0.315,0.588,0.588,0,0,0,.037-0.408,7.185,7.185,0,0,1-.074-1.168,5.2,5.2,0,0,0-.186-1.466,4.637,4.637,0,0,1-.2-0.779,0.407,0.407,0,0,0-.444-0.315,1.8,1.8,0,0,0-1.151.816,7.033,7.033,0,0,1,.687-2.133q0.352-.538.723-0.315a1.116,1.116,0,0,1,.482.482q0.111,0.259.335-.093t0.371-.241a1.3,1.3,0,0,1,.316.445,2.831,2.831,0,0,1,.241.705,11.531,11.531,0,0,1,.129,1.354,1.908,1.908,0,0,1-.241,1.317,1.183,1.183,0,0,0-.3.816q0.074,1.929.3,1.911a1.045,1.045,0,0,0,.538-0.3,0.6,0.6,0,0,1,.556-0.2,1.3,1.3,0,0,1,.279,1.076q0.037,1,.186.2c0.1-.532.285-0.8,0.557-0.8s0.322,0.716.148,2.151a15.753,15.753,0,0,0-2.077,2.151,1.981,1.981,0,0,1-.019-1.3,5.909,5.909,0,0,0,.371-0.835q0.167-.464.279-0.835,0.3-.889-0.112-0.148c-0.148.3-.279,0.557-0.389,0.779a6.541,6.541,0,0,1-.389.669,18.932,18.932,0,0,0-.482-2.115q-0.334-1.038-.186.036a33.9,33.9,0,0,1,.407,3.377,9.8,9.8,0,0,0-1.28-1.15,7.126,7.126,0,0,1-1.131-1.039q-0.409-.259-0.148.074a10.736,10.736,0,0,0,1.316,1.392,9.664,9.664,0,0,1,1.058,1.056,1.246,1.246,0,0,1,.223.446,11.859,11.859,0,0,1-.779.927,0.61,0.61,0,0,1-.3-0.5A0.745,0.745,0,0,0-100.612,3898.272Zm-13.3,13.558a4.417,4.417,0,0,1,1.15-.927,27.764,27.764,0,0,1,4.191-1.817,0.272,0.272,0,0,1,.335.11l0.3,0.373-0.407.258a1.3,1.3,0,0,1-.928.261,2.959,2.959,0,0,0-1.3.314,1.277,1.277,0,0,0-.891.984,0.851,0.851,0,0,1-.408.557q-0.816.445-1.484,0.779l-1.15-.074Zm3.153,1.235h-0.186l-0.005-.088c-0.128.051-.261,0.064-0.4,0.119l-1.223-.17,1.3-.64,0.329,0.616,0.17-.072-0.165-.628a0.879,0.879,0,0,1,.444-1.058,1.809,1.809,0,0,1,1.3-.4c0.2,0.024.21,0.354,0.037,1.047a3.189,3.189,0,0,1-1.616,1.113Zm-5.416,4.776-0.186-.6-1,1.262-0.817.519a1.334,1.334,0,0,1-1.15.37l-1.3-.629,0.668-.335,0.185,0.148q-0.185.556,0.446-.148l1.15-1.113a5.832,5.832,0,0,0-.482-2.578,10.633,10.633,0,0,0-.89-1.985q-0.074-.334-1.707-0.148a2.948,2.948,0,0,1,2.263-.074l0.89,0.371,0.484-.206-0.069-.066-0.824-.4,0.445,0.038,0.378,0.358,0.1,0.049-0.035.016,0.258,0.244a10.939,10.939,0,0,1,2.133,2.782,2.516,2.516,0,0,1,.055,1.447C-115.641,3917.792-115.976,3918.014-116.173,3917.841Zm8.867,5.34,0.407,0.076-0.148.185-0.965.3a3.25,3.25,0,0,1-1.484.743l-0.63-.112-0.149-.444a1.277,1.277,0,0,1,.576-0.482,4.968,4.968,0,0,1,.909-0.261l0.89,0.15Zm-1.373-.2a3.52,3.52,0,0,0-1.261.424h-0.519a9.65,9.65,0,0,0-1.706-1.574l-1.743-1.474a3.586,3.586,0,0,1,2.077.236Zm5.305-7.751a4.32,4.32,0,0,0,1.633-.092,22.514,22.514,0,0,0,4.117-3.042,26,26,0,0,1,5.082-3.153q0.631-.371.055-0.538a6.67,6.67,0,0,0-1.725-.166c-0.248.2-.223,0.359,0.074,0.482a1.543,1.543,0,0,1,.742.074,27.685,27.685,0,0,0-4.155,2.6,28.686,28.686,0,0,0,.259-2.93,2.071,2.071,0,0,0-.444-1.188c-0.173-.247.039-0.469,0.682-0.667l0.5-.148v0.815l-0.682-.185,0.086,0.371a1.209,1.209,0,0,0,.822.557l2,0.11,0.892-.036q1.558,0.037,1.522.761a4.831,4.831,0,0,0,.11,1.354,7.4,7.4,0,0,0,1.263,3.041,5.126,5.126,0,0,1-.964,1.558l-1.93,1.262q-2.484,1.779-6.752,4.637a48.657,48.657,0,0,1-7.308-.482,49.726,49.726,0,0,1-7.085-1.558l-0.594-.148,0.26-.261a3.788,3.788,0,0,0,.687-1.094,4.025,4.025,0,0,0-.2-1.262,4.46,4.46,0,0,0-1.4-2.318v-0.222l0.565-.074a23.48,23.48,0,0,1,4.1.593q1.8,0.445,4.287.815Q-104.454,3915.134-103.375,3915.225Zm-2.782-.984q-0.965-.148-3.117-0.557l1.3-.444q1.039,0.222,1.186-.445A3.613,3.613,0,0,0-106.157,3914.241ZM-98.4,3903.3a1.713,1.713,0,0,0-.482,1.706,7.426,7.426,0,0,0-2,1.633,17.77,17.77,0,0,0-1.466,1.817,1.991,1.991,0,0,1-1.057.891,1.393,1.393,0,0,1-1.447-.3l-0.148.928-2.486,1.522-1.224.519a4.23,4.23,0,0,0,.186-1.262l0.445-.371q2.56-1.335,2.967-2.448a7.35,7.35,0,0,1,1.113-1.54,3.538,3.538,0,0,0,.853-1.5l0.037-.89-0.111-.927q0.593,0.667,1.075.3a24.739,24.739,0,0,1,1.67-2.69,23.3,23.3,0,0,1,1.892-2.318q1-1.078,1.706-1.819l-0.037.927a33.741,33.741,0,0,0-2.783,3.748,27.565,27.565,0,0,0-2.56,4.525,3.533,3.533,0,0,1-1.187,1.484,2.931,2.931,0,0,0-.89.631q-0.259.482,0.3,0.259a2.518,2.518,0,0,1,.816-0.555q0.817-.41,3.487-3.858l-0.037-1.3,0.408-.7a1.585,1.585,0,0,0,.186,1.187q0.222,0.111.613-.613t1.91-3.986a2.5,2.5,0,0,0-.037,1.743,1.821,1.821,0,0,0-.482,2.151Zm8.329-8.236a3.509,3.509,0,0,1-.612,1.6q-1.522,1.742-1.262,2.077a1.47,1.47,0,0,1-.148,1.595,21.542,21.542,0,0,1-2.151,2.225,0.9,0.9,0,0,1-.557,1.262,15.16,15.16,0,0,1-2.374,1.039,7.49,7.49,0,0,0,2.967-3.9,4.606,4.606,0,0,1,1.372-.927q0.52-.334.186-0.3a6.021,6.021,0,0,0-1.41.816,11.271,11.271,0,0,0,1-3.041,8.709,8.709,0,0,0,1.818-2.227q0.519-.778.037-0.333a8.983,8.983,0,0,1-1.707,1.966,33.418,33.418,0,0,0,.928-3.562q0.185-1.149-.111-0.407l-0.37,1.3a3.792,3.792,0,0,0-.594-1.188l0.482,1.558a19.053,19.053,0,0,1-.7,2.634,10.481,10.481,0,0,0-1.373-2.67q-0.778-.966-0.26-0.038a10.641,10.641,0,0,1,1.41,3.227,14.7,14.7,0,0,1-1.039,2.968,2.754,2.754,0,0,0-.928-0.927q-0.371-.185,0,0.223a5.237,5.237,0,0,1,.779.965,6.678,6.678,0,0,1-1.167,1.891,11.252,11.252,0,0,1-1.429,1.372,4.079,4.079,0,0,0,.594-3.041,0.582,0.582,0,0,1,.464-0.482c0.309-.124.414-0.26,0.316-0.408a3.139,3.139,0,0,1-.408-1.3,1.333,1.333,0,0,1,.89,0q0.483-.334-0.092-0.946a3.085,3.085,0,0,1-.724-1.763q0-.667.891-0.482,0.408-.037.074-0.964l-0.631-.853q-0.669-1.485.557-1.076l0.965,0.593q0.964,0.37.928-1.3c0-.247.191-0.3,0.575-0.168s0.735-.153,1.057-0.871q0.483-.519.742,0.965-0.111,1.967.965,1.855A1.346,1.346,0,0,1-90.076,3895.063Zm1.113-3.191a0.706,0.706,0,0,1-.167.613,1.934,1.934,0,0,1-.853.425l-0.408-.745a2.578,2.578,0,0,0-.594-1.711,2.972,2.972,0,0,1,.816-0.453,0.887,0.887,0,1,1-.148.061c-0.4.074-.706,0.452-0.928,0.452h-0.074a6.942,6.942,0,0,1,1.075-2.418c0.124-.322.049-0.37-0.222-0.023a12.5,12.5,0,0,0-1.113,1.844,1.679,1.679,0,0,1-.335-0.84c-0.1-.47-0.173-0.495-0.222-0.049a3.317,3.317,0,0,0,.334,1.218c-0.544.841-.977,1.172-1.3,1q0.3-1.78.779-3.749a1.344,1.344,0,0,1,1.483-.557,1.211,1.211,0,0,1,1.521-.26,1.86,1.86,0,0,1,.3,1.094,3.246,3.246,0,0,1-.371,1.205,0.611,0.611,0,0,1,.742.557,2.774,2.774,0,0,1-1.188,1.817A0.91,0.91,0,0,1-88.963,3891.872Z" transform="translate(150.246 -3855.555)"/><path class="cls-3" d="M-140.912,3915.561a0.307,0.307,0,0,0,.18.158,0.585,0.585,0,0,0,.912-0.3,0.619,0.619,0,0,0-.137-1c-0.18-.162-0.18-0.162-0.335.1l-0.62,1.036h0Zm-4.9-3.277c0.443,0.314.705,0.55,1.179-.063a0.647,0.647,0,0,0-.049-0.919,1.3,1.3,0,0,0-.259-0.152c-0.087,0-.083.089-0.166,0.094l-0.7,1.04h0Zm7.036,3.461a0.761,0.761,0,0,0-.127-0.831l0.078-.09c0.168,0.078.352,0.235,0.521,0.31a3.651,3.651,0,0,0,.607.3l-0.081.086a0.284,0.284,0,0,0-.418.023c-0.077.177-.283,1.021-0.36,1.28l-0.255,1.437,1.051-.89a10.241,10.241,0,0,0,.873-0.97,0.267,0.267,0,0,0-.106-0.417l-0.009-.163c0.176,0.155.346,0.233,0.437,0.31a1.821,1.821,0,0,1,.435.23l0,0.079c-0.349-.229-0.664.206-0.988,0.473l-2.087,1.959-0.171-.079,0.6-3.046h0Zm-2.692.516a2.589,2.589,0,0,0-.3.687c-0.075.173,0.091,0.25,0.271,0.408l-0.079.084a4.206,4.206,0,0,0-.614-0.39c-0.172-.07-0.347-0.225-0.52-0.3l-0.009-.171c0.173,0.079.348,0.237,0.428,0.064a1.762,1.762,0,0,0,.475-0.615l0.771-1.3a3.748,3.748,0,0,1,.388-0.61c0.071-.252-0.1-0.327-0.274-0.4l0.081-.089c0.176,0.158.433,0.229,0.612,0.386,0.171,0.074.349,0.233,0.521,0.31a0.871,0.871,0,0,1,.4,1.318,0.963,0.963,0,0,1-1.5.249,0.627,0.627,0,0,1-.261-0.155l-0.4.522h0Zm-1.866-2.977a3.474,3.474,0,0,1,.387-0.61c0.071-.253-0.1-0.329-0.274-0.4l0.163-.1,1.833,1.165-0.472.693-0.087-.077c0.311-.516.129-0.676-0.3-0.988l-0.264-.153c-0.084-.08-0.084-0.08-0.244.1l-0.7,1.127a0.615,0.615,0,0,0,1-.139l0.085-.005c-0.15.265-.311,0.44-0.39,0.611a3.6,3.6,0,0,1-.387.607l-0.089-.083c0.31-.516.133-0.674-0.3-0.9l-0.467.781a1.367,1.367,0,0,0-.225.511,0.554,0.554,0,0,0,.364.486,0.727,0.727,0,0,0,1.086-.133l0.085-.005-0.463.771-2.1-1.4,0.075-.087a0.375,0.375,0,0,0,.428.061c0.077-.089.313-0.437,0.473-0.608l0.779-1.214h0Zm-2.026,1.155a0.542,0.542,0,0,0,.2.5l-0.076.089c-0.093-.079-0.181-0.158-0.267-0.242s-0.261-.068-0.349-0.145l0.061-.427,0.013-1.339a0.4,0.4,0,0,0-.19-0.41l-0.391.525c-0.078.173-.31,0.517-0.385,0.689a0.355,0.355,0,0,0,.27.323l-0.079.087c-0.173-.074-0.35-0.232-0.519-0.311a1.568,1.568,0,0,0-.612-0.381l0.075-.089a0.406,0.406,0,0,0,.424.061,1.714,1.714,0,0,0,.476-0.608l0.856-1.306a3.953,3.953,0,0,0,.395-0.606c0.072-.171-0.1-0.249-0.19-0.326l-0.008-.168c0.262,0.155.439,0.313,0.7,0.467a1.86,1.86,0,0,1,.438.311,0.886,0.886,0,0,1,.4,1.318,0.871,0.871,0,0,1-1.244.317v1.676h0Zm24.1,1.112-0.693-1.3-0.214,1.4,0.908-.1h0ZM-132.016,3918c0.084,0.162.09,0.41,0.177,0.572a0.393,0.393,0,0,0,.415.153,0.64,0.64,0,0,0,.391-0.832,0.845,0.845,0,0,0-.35-0.646,1.4,1.4,0,0,0-.575.015l-0.162.005,0.1,0.733h0Zm-0.108-.977,0.082,0a3.056,3.056,0,0,0,.405-0.181,0.881,0.881,0,0,0,.146-0.656,0.556,0.556,0,0,0-.588-0.555,0.423,0.423,0,0,1-.251.086s0,0.162.007,0.245l0.2,1.063h0Zm-2.587,1.377a2.076,2.076,0,0,0,.179.654,0.282,0.282,0,0,0,.417.068c0.41-.011.567-0.341,0.472-0.832a0.784,0.784,0,0,0-.429-0.565,0.934,0.934,0,0,0-.656.018h-0.086l0.1,0.655h0Zm-0.188-.9,0.163-.081a0.4,0.4,0,0,0,.407-0.173,0.694,0.694,0,0,0,.149-0.578c-0.093-.41-0.269-0.649-0.677-0.558a0.415,0.415,0,0,0-.246.091l0,0.163,0.2,1.136h0Zm12.58-1.447a3.1,3.1,0,0,0-.061.819c0.007,0.249.253,0.158,0.42,0.153l0,0.166c-0.167.005-.334,0.01-0.5,0.013a1.038,1.038,0,0,1-.49.094l0-.081a0.534,0.534,0,0,0,.4-0.425c0.07-.41.062-0.736,0.133-1.072l0.357-2.216,0.163,0,1.3,2.505c0.086,0.16.256,0.4,0.344,0.563a0.618,0.618,0,0,0,.412.072l0,0.162a1.4,1.4,0,0,0-.573.1c-0.247.007-.49,0.093-0.655,0.1l0-.079c0.077-.087.326-0.092,0.233-0.336,0-.081-0.084-0.244-0.086-0.324l-0.349-.57-1.066.2,0,0.165h0Zm-1.534-2.093,0.084,0,0.2,1.061-0.087,0a1.047,1.047,0,0,0-1.094-.873c-0.824.1-.879,1.086-0.776,1.9,0.191,0.815.538,1.626,1.36,1.522a1.148,1.148,0,0,0,.709-1.328l0.08-.086,0.2,1.224-0.171-.241a1.437,1.437,0,0,1-.895.514,1.6,1.6,0,0,1-1.853-1.5,1.7,1.7,0,0,1,1.26-2.083,1.364,1.364,0,0,1,1,.135l-0.006-.245h0Zm-3.368,1.563c0-.166-0.093-0.489-0.1-0.653a0.542,0.542,0,0,0-.419-0.153l-0.085-.076a2.018,2.018,0,0,1,.661-0.1c0.244-.005.489-0.1,0.654-0.1l0,0.084a0.448,0.448,0,0,0-.324.25,1.853,1.853,0,0,0,.1.657l0.209,1.554a1.6,1.6,0,0,0,.177.647,0.4,0.4,0,0,0,.419.151l0,0.168-0.658.016a1.649,1.649,0,0,1-.655.1l0-.079c0.166-.005.327-0.008,0.321-0.257a1.732,1.732,0,0,0-.017-0.651l-0.29-1.553h0Zm-2.865.547c0-.165-0.1-0.57-0.1-0.736a0.288,0.288,0,0,0-.413-0.07l-0.088-.162a1.677,1.677,0,0,0,.66-0.1,1.57,1.57,0,0,0,.657-0.1l0.083,0.162a0.392,0.392,0,0,0-.4.173c0,0.163.1,0.568,0.1,0.738l0.2,1.548c0.1,0.656.27,0.814,0.846,0.716a1.666,1.666,0,0,0,.569-0.264,0.859,0.859,0,0,0,.15-0.659l0.162-.088,0.1,0.984-0.242.007c-0.742.1-1.564,0.285-2.3,0.389l0-.084c0.164-.082.328-0.087,0.323-0.252a2.234,2.234,0,0,0-.02-0.739l-0.285-1.464h0Zm-2.63.475a1.5,1.5,0,0,0-.184-0.653,0.4,0.4,0,0,0-.417-0.149l0-.079a1.813,1.813,0,0,1,.662-0.1c0.158,0,.321-0.091.491-0.1a0.85,0.85,0,0,1,1.168.626,0.831,0.831,0,0,1-.554.918,0.9,0.9,0,0,1,.668.147,1.285,1.285,0,0,1,.509.636,1.1,1.1,0,0,1-.307.831,1.089,1.089,0,0,1-.819.268,0.88,0.88,0,0,1-.489.1,2.384,2.384,0,0,0-.738.179l0-.16a0.27,0.27,0,0,0,.318-0.256c0-.163-0.094-0.492-0.1-0.653l-0.2-1.555h0Zm-2.776.479c0-.16-0.1-0.57-0.1-0.73a0.274,0.274,0,0,0-.413-0.069l0-.165a1.369,1.369,0,0,0,.572-0.1,1.257,1.257,0,0,0,.576-0.093,0.883,0.883,0,0,1,1.175.705,0.767,0.767,0,0,1-.47.909,1.493,1.493,0,0,1,.659.071,0.846,0.846,0,0,1,.433.723,0.83,0.83,0,0,1-.308.829,1.152,1.152,0,0,1-.734.264,1.193,1.193,0,0,0-.574.1c-0.334.008-.493,0.1-0.824,0.107l0-.086a0.73,0.73,0,0,0,.408-0.257c0-.16-0.1-0.568-0.1-0.731l-0.288-1.474h0Zm27.918,0.433-0.249-1.505-0.668,1.341,0.918,0.164h0Zm5.591-.372c0-.165-0.083-0.582-0.083-0.669-0.08-.252-0.252-0.165-0.416-0.165v-0.171h0.664c0.165,0,.417-0.083.668-0.083v0.166a0.387,0.387,0,0,0-.416.171v0.75l0.165,1.509a2.25,2.25,0,0,0,.086.753,0.393,0.393,0,0,0,.412.166v0.082h-0.663a1.86,1.86,0,0,1-.667.083v-0.083a0.276,0.276,0,0,0,.336-0.249,1.913,1.913,0,0,0,0-.67l-0.087-1.591h0Zm-3.277-.32c0-.17.088-0.586,0.088-0.751a0.47,0.47,0,0,0-.418-0.256l0.086-.077c0.163,0,.413.077,0.581,0.077a2.195,2.195,0,0,0,.749.088l-0.08.168a0.4,0.4,0,0,0-.418.082c-0.083.165-.083,0.587-0.17,0.75l-0.249,1.6c-0.081.666,0,.833,0.5,0.919a1.789,1.789,0,0,0,.665,0,0.738,0.738,0,0,0,.42-0.672h0.169l-0.248,1c0-.083-0.17-0.083-0.17-0.083-0.834-.168-1.584-0.25-2.412-0.42V3919.1a0.612,0.612,0,0,0,.5-0.166,2.574,2.574,0,0,1,.169-0.669l0.244-1.507h0Zm-3.481.862c-0.083.166-.249,0.583-0.331,0.753a0.462,0.462,0,0,0,.331.335v0.082c-0.168,0-.331-0.082-0.5-0.082s-0.337-.088-0.5-0.088l0.08-.077a0.531,0.531,0,0,0,.5-0.34c0.166-.335.331-0.667,0.5-1l1-2.007,0.165,0.079,0.5,2.848c0.088,0.166.088,0.5,0.169,0.669a0.481,0.481,0,0,0,.33.252v0.085c-0.165,0-.41-0.085-0.664-0.085a1.709,1.709,0,0,0-.665-0.079l0.083-.173c0.084,0,.331.086,0.331-0.082v-0.5l-0.083-.583-1.163-.17-0.085.17h0Zm-0.321-1.713-0.086-.081a0.544,0.544,0,0,0-.5-0.759c-0.249,0-.5-0.079-0.5.084l-0.412,2.593a0.522,0.522,0,0,0,.412.674v0.081a2.373,2.373,0,0,1-.744-0.165,2.247,2.247,0,0,1-.753-0.086v-0.083c0.5,0,.588-0.082.668-0.5l0.332-2.594c0.085-.079-0.169-0.166-0.332-0.166-0.5-.077-0.668-0.077-0.748.586l-0.168-.082,0.168-.84,2.83,0.5-0.165.84h0Zm-4.219-.562a1.858,1.858,0,0,0,0-.672,0.289,0.289,0,0,0-.327-0.25v-0.165a2.585,2.585,0,0,0,.664.165c0.25,0,.5.086,0.748,0.086l-0.085.081a0.441,0.441,0,0,0-.413.17c-0.087.166-.087,0.5-0.168,0.67l-0.169,1.588a2.184,2.184,0,0,0-.08.672c0,0.249.166,0.249,0.329,0.249v0.17c-0.249-.089-0.418-0.089-0.664-0.17a1.755,1.755,0,0,1-.664-0.086v-0.082a0.391,0.391,0,0,0,.411-0.168,1.484,1.484,0,0,0,.168-0.665l0.249-1.591h0Zm20.1-2.508L-94.43,3912l0.5,1.424,0.747-.588h0Zm-5.613,4.035-1.084-1,0.251,1.425,0.833-.423h0Zm4.947-3.116a2.444,2.444,0,0,0,.254.837,0.273,0.273,0,0,0,.412-0.084l0.086,0.168a1.8,1.8,0,0,1-.414.254,1.118,1.118,0,0,0-.338.335l-0.082-.17a0.538,0.538,0,0,0,.165-0.5,7.538,7.538,0,0,1-.329-1.087l-0.667-2.174,0.08-.087,2.42,1.678a1.7,1.7,0,0,0,.5.335,0.549,0.549,0,0,0,.5-0.086v0.168a1.724,1.724,0,0,0-.5.333c-0.165.168-.335,0.254-0.5,0.421l-0.084-.087a0.4,0.4,0,0,0,.163-0.419c-0.08-.083-0.246-0.163-0.333-0.249l-0.5-.336-0.919.669,0.082,0.085h0Zm-4.163.606a0.476,0.476,0,0,0-.582.086l-0.085-.173a0.519,0.519,0,0,0,.335-0.247,0.62,0.62,0,0,0,.333-0.166l3.249,1.089-0.918-1.26c-0.166-.163-0.331-0.5-0.5-0.665a0.494,0.494,0,0,0-.581,0l-0.085-.084c0.166-.084.331-0.17,0.5-0.252a0.66,0.66,0,0,1,.333-0.339l0.083,0.09c-0.083.168-.253,0.168-0.166,0.417,0.084,0.168.414,0.586,0.585,0.833l1.329,1.847-0.083.081a1.141,1.141,0,0,1-.5-0.168l-3-1,1.083,1.5a3.321,3.321,0,0,0,.5.586,0.533,0.533,0,0,0,.5-0.087v0.087a0.8,0.8,0,0,1-.414.335,1.475,1.475,0,0,0-.421.336l-0.077-.084a0.4,0.4,0,0,0,.166-0.5,2.774,2.774,0,0,0-.421-0.591l-1.165-1.67h0Zm-1.53,3.349a3.605,3.605,0,0,0,.163.833c0.085,0.17.328,0.083,0.413,0l0.085,0.083c-0.169.087-.246,0.17-0.412,0.257a1.762,1.762,0,0,0-.418.245l-0.086-.083a0.471,0.471,0,0,0,.169-0.584,4.758,4.758,0,0,0-.169-1.086l-0.417-2.26h0.17l2.161,1.922a2.652,2.652,0,0,0,.5.418,0.69,0.69,0,0,0,.418,0l0.083,0.085a2.067,2.067,0,0,0-.584.336,2.085,2.085,0,0,0-.584.335l-0.084-.168a0.247,0.247,0,0,0,.249-0.333,1.146,1.146,0,0,0-.332-0.334l-0.415-.338-1,.5,0.087,0.17h0Z" transform="translate(150.246 -3855.555)"/><path class="cls-3" d="M-142,3893.967c-0.221-.672-0.476-1.473-0.554-1.736l-0.048-.163,1.912-1.087a23.93,23.93,0,0,1-.416-2.679l-2.154-.444-0.006-.168c-0.016-.46-0.016-2.355,0-2.816l0.006-.168,2.154-.444a22.212,22.212,0,0,1,.415-2.678l-1.06-.594,0.724-.084,0.82,0.46-0.034.155a21.72,21.72,0,0,0-.454,2.936l-0.013.159-2.136.44c-0.011.567-.011,1.883,0,2.451l2.136,0.44,0.013,0.159a23.372,23.372,0,0,0,.455,2.937l0.032,0.153-1.888,1.073c0.089,0.29.24,0.764,0.39,1.225Zm3.809,6.243c0.187,0.258.359,0.494,0.478,0.653l1.969-.895,0.1,0.117a25.552,25.552,0,0,0,2.111,2.1l0.117,0.1-0.9,1.99c0.443,0.341,1.511,1.112,1.976,1.43l1.6-1.468,0.137,0.082a21.555,21.555,0,0,0,2.66,1.346l0.148,0.062-0.245,2.168c0.543,0.189,1.792.595,2.335,0.759l1.058-1.889,0.155,0.034a21.952,21.952,0,0,0,2.936.453l0.159,0.013,0.441,2.137c0.271,0.005.723,0.008,1.231,0.008s0.952,0,1.218-.008l0.423-2.117,0.157-.015a22.651,22.651,0,0,0,2.936-.471l0.156-.036,1.076,1.891c0.554-.166,1.806-0.57,2.337-0.758l-0.245-2.151,0.145-.064a22.359,22.359,0,0,0,2.645-1.362l0.136-.082,1.617,1.469c0.462-.313,1.523-1.094,1.973-1.433l-0.912-1.972,0.12-.106a19.619,19.619,0,0,0,2.107-2.107l0.1-.122,1.992,0.9c0.342-.443,1.113-1.51,1.432-1.975l-1.468-1.6,0.082-.137a22.528,22.528,0,0,0,1.346-2.644l0.063-.145,2.168,0.229c0.193-.545.6-1.789,0.749-2.32l-1.879-1.077,0.034-.153a21.721,21.721,0,0,0,.454-2.936l0.013-.16,2.14-.441c0.022-.562.022-1.884,0-2.447l-2.14-.425-0.013-.16a18.5,18.5,0,0,0-.469-2.931l-0.039-.157,1.9-1.079c-0.155-.548-0.559-1.807-0.746-2.333l-2.171.261-0.062-.15a19.38,19.38,0,0,0-1.345-2.657l-0.083-.137,1.47-1.6c-0.318-.476-1.093-1.548-1.445-1.99l-1.961.915-0.106-.122a21.519,21.519,0,0,0-2.108-2.108l-0.12-.1,0.9-1.975c-0.445-.348-1.511-1.134-1.988-1.448l-1.585,1.471-0.137-.082a21.557,21.557,0,0,0-2.66-1.346l-0.147-.062,0.245-2.157c-0.523-.2-1.781-0.6-2.334-0.757l-1.062,1.9-0.157-.037a19.328,19.328,0,0,0-2.932-.47l-0.159-.013-0.442-2.125c-0.264-.01-0.715-0.016-1.225-0.016s-0.959.006-1.223,0.016l-0.425,2.124-0.16.013a18.515,18.515,0,0,0-2.931.469l-0.156.039-1.1-1.9c-0.54.156-1.787,0.561-2.32,0.758l0.245,2.156-0.148.062a20.181,20.181,0,0,0-2.642,1.345l-0.136.082-1.615-1.469c-0.225.155-.589,0.417-0.956,0.685l0.069-.577c0.342-.248.646-0.462,0.79-0.557l0.138-.09,1.626,1.478a20.843,20.843,0,0,1,2.413-1.229l-0.246-2.163,0.15-.061c0.446-.182,2.231-0.761,2.68-0.877l0.157-.041,1.1,1.9a18.919,18.919,0,0,1,2.682-.428l0.426-2.132,0.162-.011h0.019l0.14-.01h0.007l0.038,0h0.179c0.3-.007.7-0.01,1.032-0.01,0.514,0,1.157.007,1.416,0.025l0.162,0.011,0.442,2.132a19.664,19.664,0,0,1,2.679.429l1.066-1.9,0.158,0.039c0.473,0.118,2.276.7,2.7,0.879l0.147,0.062-0.245,2.162a21.863,21.863,0,0,1,2.427,1.229l1.589-1.475,0.138,0.083c0.42,0.252,1.945,1.38,2.3,1.672l0.127,0.1-0.9,1.987a21.793,21.793,0,0,1,1.924,1.923l1.967-.918,0.106,0.123c0.306,0.355,1.417,1.893,1.673,2.3l0.086,0.138-1.477,1.607a19.9,19.9,0,0,1,1.23,2.427l2.183-.262,0.059,0.155c0.165,0.428.74,2.219,0.86,2.694l0.04,0.157-1.9,1.081a18.921,18.921,0,0,1,.428,2.68l2.148,0.426,0.011,0.162c0.032,0.463.032,2.368,0,2.831l-0.011.161-2.148.442a21.945,21.945,0,0,1-.416,2.68l1.884,1.081-0.034.153c-0.1.473-.708,2.27-0.86,2.68l-0.057.156-2.187-.23a22.78,22.78,0,0,1-1.229,2.413l1.479,1.611-0.091.139c-0.259.4-1.356,1.917-1.651,2.278l-0.1.127-2-.9a20.067,20.067,0,0,1-1.927,1.924l0.921,1.992-0.134.1c-0.366.284-1.879,1.4-2.279,1.651l-0.137.086-1.623-1.476a23.026,23.026,0,0,1-2.413,1.242l0.246,2.171-0.154.059c-0.428.163-2.221,0.739-2.688,0.873l-0.161.047-1.086-1.908a22.857,22.857,0,0,1-2.678.428l-0.428,2.14-0.169.007c-0.257.008-.892,0.011-1.4,0.011s-1.148,0-1.414-.011l-0.168-.007-0.443-2.153a22.627,22.627,0,0,1-2.678-.417l-1.07,1.909-0.162-.047c-0.443-.127-2.231-0.705-2.685-0.873l-0.157-.057,0.247-2.186a22.194,22.194,0,0,1-2.428-1.229l-1.611,1.479-0.139-.091c-0.4-.26-1.918-1.357-2.279-1.652l-0.127-.1,0.9-2a26.277,26.277,0,0,1-1.925-1.908l-1.992.906-0.1-.135c-0.1-.127-0.292-0.39-0.515-0.7Z" transform="translate(150.246 -3855.555)"/><path class="cls-3" d="M-119.749,3903.61a17.213,17.213,0,0,1-7.249-1.586l-0.307-.142,7.577-9.536,7.4,9.607-0.306.137A17.517,17.517,0,0,1-119.749,3903.61Zm-6.72-1.929a16.67,16.67,0,0,0,6.719,1.4,16.99,16.99,0,0,0,6.595-1.339l-6.579-8.535Zm19.232-3.369-6.729-10.144,11.428-4.075,0.036,0.334a17.326,17.326,0,0,1-4.507,13.638Zm-5.912-9.873,5.979,9.014a16.791,16.791,0,0,0,4.176-12.635Zm-19.2,9.725-0.225-.25a17.411,17.411,0,0,1-4.357-13.687l0.039-.335,11.41,4.248Zm-4.092-13.539a16.878,16.878,0,0,0,4.038,12.682l6.1-8.906Zm20.284-3.231-0.346-12.138,0.328,0.069a17.3,17.3,0,0,1,11.576,8.515l0.163,0.294Zm0.2-11.478,0.308,10.786,10.417-2.9A16.774,16.774,0,0,0-115.952,3869.918Zm-7.329,11.466-11.637-3.434,0.168-.291a17.317,17.317,0,0,1,11.659-8.365l0.33-.065Zm-10.839-3.75,10.339,3.05,0.462-10.8A16.785,16.785,0,0,0-134.119,3877.633Z" transform="translate(150.246 -3855.555)"/><path class="cls-3" d="M-119.731,3870.533l-3.661,10.447-0.058.164-0.173,0-11.079.268,8.806,6.707,0.138,0.1-0.049.166-3.173,10.639,9.106-6.3,0.142-.1,0.143,0.1,9.121,6.3-3.172-10.605-0.049-.165,0.139-.106,8.806-6.739-11.061-.252-0.175,0-0.057-.163-3.694-10.465h0Zm-4.077,10.118,3.84-10.957,0.236-.674,0.238,0.673,3.873,10.975,11.6,0.265,0.714,0.016-0.567.434-9.236,7.068,3.327,11.124,0.205,0.684-0.588-.4-9.567-6.606-9.551,6.606-0.587.4,0.2-.684,3.327-11.157-9.236-7.034-0.568-.433,0.715-.017,11.62-.281h0Z" transform="translate(150.246 -3855.555)"/><polygon class="cls-3" points="10.07 48.372 10.07 48.372 10.072 48.376 10.07 48.372"/><polygon class="cls-3" points="9.07 46.334 10.07 48.372 10.07 48.372 9.07 46.334"/></svg>